<svg width="800" height="450" xmlns="http://www.w3.org/2000/svg">
  <defs>
    <linearGradient id="bg3" x1="0%" y1="0%" x2="100%" y2="100%">
      <stop offset="0%" style="stop-color:#020d1a"/>
      <stop offset="100%" style="stop-color:#04152a"/>
    </linearGradient>
    <linearGradient id="scrollbar" x1="0%" y1="0%" x2="0%" y2="100%">
      <stop offset="0%"   style="stop-color:#06b6d4;stop-opacity:0"/>
      <stop offset="30%"  style="stop-color:#06b6d4;stop-opacity:0.9"/>
      <stop offset="70%"  style="stop-color:#0ea5e9;stop-opacity:0.9"/>
      <stop offset="100%" style="stop-color:#0ea5e9;stop-opacity:0"/>
    </linearGradient>
    <radialGradient id="phoneglow" cx="50%" cy="50%" r="50%">
      <stop offset="0%" style="stop-color:#0ea5e9;stop-opacity:0.12"/>
      <stop offset="100%" style="stop-color:#0ea5e9;stop-opacity:0"/>
    </radialGradient>
  </defs>
  <rect width="800" height="450" fill="url(#bg3)"/>
  <ellipse cx="400" cy="225" rx="180" ry="230" fill="url(#phoneglow)"/>
  <rect x="322" y="45" width="156" height="360" rx="22" fill="none" stroke="#0ea5e9" stroke-width="1.5" opacity="0.55"/>
  <rect x="334" y="62" width="132" height="326" rx="12" fill="#03111f" opacity="0.9"/>
  <rect x="344" y="76"  width="112" height="7"  rx="3.5" fill="#06b6d4" opacity="0.75"/>
  <rect x="344" y="90"  width="85"  height="5"  rx="2.5" fill="#0ea5e9" opacity="0.5"/>
  <rect x="344" y="102" width="112" height="32" rx="5" fill="#071e30" stroke="#0ea5e9" stroke-width="0.6" opacity="0.65"/>
  <rect x="344" y="142" width="112" height="7"  rx="3.5" fill="#06b6d4" opacity="0.75"/>
  <rect x="344" y="156" width="70"  height="5"  rx="2.5" fill="#0ea5e9" opacity="0.5"/>
  <rect x="344" y="168" width="112" height="32" rx="5" fill="#071e30" stroke="#0ea5e9" stroke-width="0.6" opacity="0.65"/>
  <rect x="344" y="208" width="112" height="7"  rx="3.5" fill="#06b6d4" opacity="0.75"/>
  <rect x="344" y="222" width="95"  height="5"  rx="2.5" fill="#0ea5e9" opacity="0.5"/>
  <rect x="344" y="234" width="112" height="32" rx="5" fill="#071e30" stroke="#0ea5e9" stroke-width="0.6" opacity="0.65"/>
  <rect x="344" y="274" width="112" height="7"  rx="3.5" fill="#06b6d4" opacity="0.75"/>
  <rect x="344" y="288" width="60"  height="5"  rx="2.5" fill="#0ea5e9" opacity="0.5"/>
  <rect x="344" y="300" width="112" height="32" rx="5" fill="#071e30" stroke="#0ea5e9" stroke-width="0.6" opacity="0.55"/>
  <rect x="462" y="110" width="3.5" height="70" rx="1.75" fill="url(#scrollbar)"/>
  <line x1="40"  y1="110" x2="314" y2="148" stroke="#06b6d4" stroke-width="0.7" opacity="0.14"/>
  <line x1="40"  y1="175" x2="314" y2="188" stroke="#0ea5e9" stroke-width="0.7" opacity="0.11"/>
  <line x1="40"  y1="240" x2="314" y2="220" stroke="#06b6d4" stroke-width="0.7" opacity="0.14"/>
  <line x1="40"  y1="305" x2="314" y2="262" stroke="#0ea5e9" stroke-width="0.7" opacity="0.11"/>
  <line x1="478" y1="148" x2="760" y2="110" stroke="#06b6d4" stroke-width="0.7" opacity="0.14"/>
  <line x1="478" y1="188" x2="760" y2="175" stroke="#0ea5e9" stroke-width="0.7" opacity="0.11"/>
  <line x1="478" y1="220" x2="760" y2="240" stroke="#06b6d4" stroke-width="0.7" opacity="0.14"/>
  <line x1="478" y1="262" x2="760" y2="305" stroke="#0ea5e9" stroke-width="0.7" opacity="0.11"/>
  <line x1="393" y1="415" x2="393" y2="438" stroke="#06b6d4" stroke-width="1.5" opacity="0.55"/>
  <polyline points="384,430 393,440 402,430" fill="none" stroke="#06b6d4" stroke-width="1.5" opacity="0.55"/>
  <line x1="393" y1="395" x2="393" y2="408" stroke="#06b6d4" stroke-width="1" opacity="0.3"/>
</svg>
