<svg width="800" height="450" xmlns="http://www.w3.org/2000/svg">
  <defs>
    <linearGradient id="bg2" x1="0%" y1="0%" x2="100%" y2="100%">
      <stop offset="0%" style="stop-color:#0d0a1f"/>
      <stop offset="100%" style="stop-color:#1a0f2e"/>
    </linearGradient>
    <radialGradient id="spot" cx="50%" cy="55%" r="45%">
      <stop offset="0%" style="stop-color:#7c3aed;stop-opacity:0.35"/>
      <stop offset="100%" style="stop-color:#7c3aed;stop-opacity:0"/>
    </radialGradient>
    <radialGradient id="core" cx="50%" cy="50%" r="50%">
      <stop offset="0%" style="stop-color:#c4b5fd;stop-opacity:0.6"/>
      <stop offset="100%" style="stop-color:#c4b5fd;stop-opacity:0"/>
    </radialGradient>
  </defs>
  <rect width="800" height="450" fill="url(#bg2)"/>
  <ellipse cx="400" cy="248" rx="320" ry="210" fill="url(#spot)"/>
  <circle cx="400" cy="215" r="190" fill="none" stroke="#6d28d9" stroke-width="1" opacity="0.18"/>
  <circle cx="400" cy="215" r="145" fill="none" stroke="#7c3aed" stroke-width="1" opacity="0.27"/>
  <circle cx="400" cy="215" r="100" fill="none" stroke="#8b5cf6" stroke-width="1.5" opacity="0.4"/>
  <circle cx="400" cy="215" r="58"  fill="none" stroke="#a78bfa" stroke-width="1.5" opacity="0.6"/>
  <circle cx="400" cy="215" r="22"  fill="none" stroke="#c4b5fd" stroke-width="2"   opacity="0.85"/>
  <ellipse cx="400" cy="215" rx="22" ry="22" fill="url(#core)"/>
  <circle cx="400" cy="215" r="5"   fill="#ede9fe" opacity="0.95"/>
  <circle cx="148" cy="370" r="3.5" fill="#7c3aed" opacity="0.55"/>
  <circle cx="190" cy="350" r="2.5" fill="#8b5cf6" opacity="0.45"/>
  <circle cx="232" cy="378" r="3"   fill="#6d28d9" opacity="0.5"/>
  <circle cx="275" cy="362" r="2"   fill="#7c3aed" opacity="0.4"/>
  <circle cx="525" cy="362" r="2"   fill="#7c3aed" opacity="0.4"/>
  <circle cx="568" cy="378" r="3"   fill="#6d28d9" opacity="0.5"/>
  <circle cx="610" cy="350" r="2.5" fill="#8b5cf6" opacity="0.45"/>
  <circle cx="652" cy="370" r="3.5" fill="#7c3aed" opacity="0.55"/>
  <line x1="400" y1="25"  x2="400" y2="95"  stroke="#8b5cf6" stroke-width="1" opacity="0.3" stroke-dasharray="4,6"/>
</svg>
